<svg xmlns="http://www.w3.org/2000/svg" xmlns:xlink="http://www.w3.org/1999/xlink" aria-hidden="true" role="img" class="iconify iconify--logos" width="31.88" height="32" preserveAspectRatio="xMidYMid meet" viewBox="0 0 256 257">
  <!-- Background -->
  <rect width="256" height="257" rx="45" fill="#1e40af"/>
  
  <!-- Calculator Frame -->
  <rect x="40" y="30" width="176" height="197" rx="15" fill="#ffffff"/>
  
  <!-- Screen -->
  <rect x="55" y="50" width="146" height="35" rx="8" fill="#f1f5f9" stroke="#1e40af" stroke-width="2"/>
  
  <!-- Currency Display -->
  <text x="128" y="75" text-anchor="middle" font-family="Arial Black" font-size="20" font-weight="900" fill="#1e40af">KWD</text>
  
  <!-- Buttons Grid -->
  <!-- Row 1 -->
  <rect x="60" y="105" width="30" height="25" rx="5" fill="#1e40af"/>
  <rect x="100" y="105" width="30" height="25" rx="5" fill="#1e40af"/>
  <rect x="140" y="105" width="30" height="25" rx="5" fill="#1e40af"/>
  <rect x="180" y="105" width="30" height="25" rx="5" fill="#dc2626"/>
  
  <!-- Row 2 -->
  <rect x="60" y="140" width="30" height="25" rx="5" fill="#1e40af"/>
  <rect x="100" y="140" width="30" height="25" rx="5" fill="#1e40af"/>
  <rect x="140" y="140" width="30" height="25" rx="5" fill="#1e40af"/>
  <rect x="180" y="140" width="30" height="25" rx="5" fill="#dc2626"/>
  
  <!-- Row 3 -->
  <rect x="60" y="175" width="30" height="25" rx="5" fill="#1e40af"/>
  <rect x="100" y="175" width="30" height="25" rx="5" fill="#1e40af"/>
  <rect x="140" y="175" width="30" height="25" rx="5" fill="#1e40af"/>
  <rect x="180" y="175" width="30" height="25" rx="5" fill="#dc2626"/>
  
  <!-- Bottom Row -->
  <rect x="60" y="210" width="70" height="25" rx="5" fill="#10b981"/>
  <rect x="140" y="210" width="30" height="25" rx="5" fill="#1e40af"/>
  <rect x="180" y="210" width="30" height="25" rx="5" fill="#dc2626"/>
  
  <!-- Button Labels -->
  <text x="75" y="120" text-anchor="middle" font-family="Arial" font-size="12" font-weight="bold" fill="#ffffff">7</text>
  <text x="115" y="120" text-anchor="middle" font-family="Arial" font-size="12" font-weight="bold" fill="#ffffff">8</text>
  <text x="155" y="120" text-anchor="middle" font-family="Arial" font-size="12" font-weight="bold" fill="#ffffff">9</text>
  <text x="195" y="120" text-anchor="middle" font-family="Arial" font-size="12" font-weight="bold" fill="#ffffff">รท</text>
  
  <text x="95" y="225" text-anchor="middle" font-family="Arial" font-size="10" font-weight="bold" fill="#ffffff">TOTAL</text>
  <text x="195" y="225" text-anchor="middle" font-family="Arial" font-size="12" font-weight="bold" fill="#ffffff">=</text>
</svg>