<svg width="32" height="32" viewBox="0 0 32 32" fill="none" xmlns="http://www.w3.org/2000/svg">
  <!-- Background -->
  <rect width="32" height="32" rx="6" fill="#1e40af"/>
  
  <!-- Calculator Frame -->
  <rect x="6" y="5" width="20" height="22" rx="2" fill="#ffffff"/>
  
  <!-- Screen -->
  <rect x="8" y="7" width="16" height="5" rx="1" fill="#f1f5f9"/>
  
  <!-- Buttons Row 1 -->
  <rect x="8" y="14" width="3" height="3" rx="1" fill="#1e40af"/>
  <rect x="12.5" y="14" width="3" height="3" rx="1" fill="#1e40af"/>
  <rect x="17" y="14" width="3" height="3" rx="1" fill="#1e40af"/>
  <rect x="21.5" y="14" width="3" height="3" rx="1" fill="#dc2626"/>
  
  <!-- Buttons Row 2 -->
  <rect x="8" y="18" width="3" height="3" rx="1" fill="#1e40af"/>
  <rect x="12.5" y="18" width="3" height="3" rx="1" fill="#1e40af"/>
  <rect x="17" y="18" width="3" height="3" rx="1" fill="#1e40af"/>
  <rect x="21.5" y="18" width="3" height="3" rx="1" fill="#dc2626"/>
  
  <!-- Buttons Row 3 -->
  <rect x="8" y="22" width="7" height="3" rx="1" fill="#10b981"/>
  <rect x="17" y="22" width="3" height="3" rx="1" fill="#1e40af"/>
  <rect x="21.5" y="22" width="3" height="3" rx="1" fill="#dc2626"/>
  
  <!-- Currency Symbol -->
  <text x="16" y="11" text-anchor="middle" font-family="Arial Black" font-size="4" font-weight="900" fill="#1e40af">$</text>
</svg>